<?xml version="1.0" encoding="UTF-8"?>
<svg version="1.1" xmlns="http://www.w3.org/2000/svg" width="4500" height="4500">
<path d="M0 0 C11.0459643 -0.10042631 22.03318448 0.13463369 33.0625 0.75 C33.8332486 0.79290161 34.60399719 0.83580322 35.39810181 0.88000488 C77.56041104 3.2973963 125.64362032 8.96199021 158 39 C158.91007813 39.83015625 159.82015625 40.6603125 160.7578125 41.515625 C167.93150566 48.34961681 173.43568559 55.85077087 179 64 C179.99059069 65.34033871 180.98601566 66.67727042 182 68 C182.54527344 67.17757813 183.09054687 66.35515625 183.65234375 65.5078125 C188.6034718 58.13933638 193.84834872 51.43025867 200 45 C200.5878125 44.34902344 201.175625 43.69804688 201.78125 43.02734375 C218.86376315 24.78351939 242.95078417 12.59322974 266.6875 5.6875 C267.93309692 5.32362183 267.93309692 5.32362183 269.20385742 4.95239258 C301.33523591 -3.94102976 336.21673336 0.11044291 365.3125 16.3125 C392.2727317 31.90206775 415.60400471 54.00137886 434 79 C437.38357031 76.10790858 440.76362261 73.21260664 444.11328125 70.28125 C496.43756234 24.65074995 553.8238217 -2.07938315 624 1 C657.02661726 3.40472319 688.25002982 17.13091317 712 40 C712.70769531 40.63292969 713.41539062 41.26585937 714.14453125 41.91796875 C731.81943126 58.22495389 740.88436546 82.63657715 748 105 C748.23557617 105.72638672 748.47115234 106.45277344 748.71386719 107.20117188 C753.66355112 122.57979043 756.64310785 138.23898096 758.6875 154.25 C758.86659912 155.64907593 758.86659912 155.64907593 759.04931641 157.07641602 C766.64650885 220.44315794 758.05133513 286.63767418 750.4666748 349.61721802 C747.57959585 373.593094 744.99185819 397.56581308 743.17712402 421.65045166 C743.00435829 423.94218737 742.82702372 426.23353774 742.64941406 428.52490234 C738.86141177 478.16810461 734.29642989 539.94495064 768.30078125 580.76171875 C782.27068734 595.69191299 800.57501176 602.31596028 820 607 C820 607.99 820 608.98 820 610 C761.60852772 611.78952299 696.63527481 603.27033142 652.25390625 562.04296875 C650.68895113 560.6244739 649.07019275 559.26401964 647.4140625 557.953125 C643.78505568 555.01703534 640.96154946 551.59411343 638 548 C637.22269531 547.06027344 636.44539063 546.12054687 635.64453125 545.15234375 C583.94723728 481.19442146 598.05371092 390.38574194 605.56109619 314.86888123 C606.91283946 301.21787399 608.05929231 287.56566186 608.9375 273.875 C608.99080475 273.06149078 609.0441095 272.24798157 609.09902954 271.40982056 C609.38592011 266.99094636 609.64482425 262.57135483 609.88067627 258.1494751 C610.00067135 255.98790649 610.13809854 253.82791801 610.27685547 251.66748047 C611.31360631 234.42422136 611.22263626 217.14471428 611.24023438 199.87695312 C611.24459349 196.2339462 611.25841233 192.5911795 611.28125 188.94824219 C611.39631159 170.18668851 611.27779451 151.53670197 609.62890625 132.8359375 C609.53678486 131.78825258 609.53678486 131.78825258 609.44280243 130.71940231 C604.52904983 75.86311194 604.52904983 75.86311194 577.15625 29.74609375 C567.49021822 21.91870932 556.51538697 17.70210802 544 19 C518.27089266 22.51321144 494.30457337 40.93445516 474 56 C473.41573242 56.4326416 472.83146484 56.8652832 472.22949219 57.31103516 C460.65160303 65.93646317 449.71759794 75.33477602 439 85 C439.93647208 86.47981766 440.87429362 87.95878128 441.8125 89.4375 C442.77542969 90.95537109 442.77542969 90.95537109 443.7578125 92.50390625 C445.31411978 94.94323962 446.89563999 97.36417137 448.4921875 99.77734375 C455.33324378 110.15231584 461.62988978 120.77404268 467.67773438 131.62988281 C468.80052271 133.64244359 469.93695562 135.64628645 471.078125 137.6484375 C507.94713213 204.10559742 531.89757946 289.11192605 532.203125 365.2890625 C532.20882507 366.43120209 532.21452515 367.57334167 532.22039795 368.75009155 C532.22978585 371.15858046 532.23635699 373.56708185 532.24023438 375.97558594 C532.2498456 379.56730158 532.28089094 383.15842036 532.3125 386.75 C532.40744536 407.29481806 531.00036566 427.76811468 526.25 447.8125 C525.99395996 448.92157715 525.73791992 450.0306543 525.47412109 451.17333984 C520.25111148 473.10116503 512.80820032 493.98029859 499 512 C497.80890625 513.56041016 497.80890625 513.56041016 496.59375 515.15234375 C491.06144536 522.09398549 485.10085197 527.69488372 478 533 C477.21109375 533.61488281 476.4221875 534.22976563 475.609375 534.86328125 C457.78001341 548.17626482 435.37034928 553.95014324 413.3203125 551.609375 C399.10710239 549.26554754 386.5708298 542.76309197 376 533 C374.68128906 531.80117187 374.68128906 531.80117187 373.3359375 530.578125 C344.05414835 502.69856238 331.70684713 461.99591104 324.75 423.25 C324.59877686 422.4132373 324.44755371 421.57647461 324.29174805 420.71435547 C321.12631864 401.87191797 320.59296411 383.07296176 320.625 364 C320.62587616 362.72342529 320.62675232 361.44685059 320.62765503 360.1315918 C320.73810596 311.20297697 329.04500656 264.26213275 346.29443359 218.34570312 C346.66262207 217.33701172 347.03081055 216.32832031 347.41015625 215.2890625 C347.74152588 214.40943848 348.07289551 213.52981445 348.41430664 212.62353516 C349.65737694 207.05536783 347.47355954 202.22490788 345.4453125 197.07421875 C345.18807404 196.41796005 344.93083557 195.76170135 344.665802 195.08555603 C343.82573108 192.95008426 342.976105 190.81859596 342.125 188.6875 C341.83443726 187.95513123 341.54387451 187.22276245 341.24450684 186.46820068 C335.83017414 172.82840426 330.09320462 159.35146249 324 146 C323.61924316 145.15872559 323.23848633 144.31745117 322.84619141 143.45068359 C309.67545031 114.45647831 293.95896949 86.27890755 272 63 C271.34386719 62.29101562 270.68773437 61.58203125 270.01171875 60.8515625 C260.10927557 50.49269408 246.64697333 41.02708687 231.9375 40.6875 C218.2627651 40.85556937 208.47507385 47.68704535 198.75 56.8125 C193.22799551 62.58498717 187.29238238 69.74271843 187 78 C187.78095778 80.96378952 188.94881168 83.73629925 190.125 86.5625 C195.62795163 100.69782905 198.81099432 115.03277616 200.75 130.0625 C200.86569336 130.95799561 200.98138672 131.85349121 201.10058594 132.77612305 C203.28969499 151.57484749 203.13743158 170.51293902 203.08674753 189.40670133 C203.07818517 193.03772124 203.07569782 196.66874628 203.07249451 200.29977417 C203.06624044 206.5766636 203.05652727 212.85353961 203.04459953 219.13042068 C203.02745619 228.25106569 203.01802036 237.37170754 203.0107208 246.49236517 C202.99880936 261.35640487 202.983883 276.22043946 202.96557617 291.08447266 C202.96448605 291.97129248 202.96339593 292.8581123 202.96227277 293.77180545 C202.94672005 306.30795555 202.92812646 318.84409929 202.9082749 331.38024323 C202.90688158 332.26039284 202.90548827 333.14054246 202.90405273 334.04736328 C202.9026592 334.92640853 202.90126567 335.80545379 202.89982992 336.71113677 C202.87659445 351.49931121 202.86140696 366.28748162 202.85249335 381.07567155 C202.84722929 389.34082869 202.83814743 397.60594447 202.81910515 405.87108231 C202.63522042 448.07791513 202.63522042 448.07791513 203.89672852 490.25927734 C203.93653269 491.07172071 203.97633686 491.88416407 204.01734722 492.72122693 C205.78158458 546.1330232 205.78158458 546.1330232 229.05859375 592.0859375 C238.36671166 599.95055049 249.19392406 601.6901288 261 603 C261 604.32 261 605.64 261 607 C205.22649845 607.95477419 141.69828178 605.47471721 98.47265625 565.46875 C78.70418858 545.73151214 67.81596966 520.6410307 62.25 493.6875 C61.95198486 492.26860474 61.95198486 492.26860474 61.64794922 490.82104492 C57.73587117 470.67568673 57.69908855 450.31808167 57.71264386 429.87889588 C57.71306936 425.87246617 57.70190843 421.86606528 57.69218445 417.85964966 C57.67683321 410.9356032 57.66834228 404.01157686 57.66447449 397.08751488 C57.65867859 387.04204879 57.64001367 376.9966361 57.61803395 366.95119385 C57.58242167 350.60101628 57.55406807 334.25083566 57.53173828 317.90063477 C57.53040329 316.92502951 57.5290683 315.94942426 57.52769285 314.94425521 C57.51827239 308.02533706 57.50911098 301.10641857 57.5 294.1875 C57.48960964 286.30281549 57.47908791 278.41813119 57.46826172 270.53344727 C57.46626561 269.07685812 57.46626561 269.07685812 57.46422917 267.59084293 C57.44167702 251.30878957 57.41142552 235.02675888 57.37586927 218.74472886 C57.35439842 208.74518866 57.33963875 198.74568373 57.33403051 188.7461218 C57.32973209 181.87330593 57.31836323 175.00052362 57.30180657 168.12772646 C57.29254992 164.18445534 57.28622999 160.24124669 57.28886986 156.2979641 C57.30283444 130.43832338 56.70978228 104.46908265 53.1875 78.8125 C53.01718262 77.5440625 52.84686523 76.275625 52.67138672 74.96875 C49.58828585 53.05681078 45.3501499 27.23401948 27.140625 12.46484375 C18.89902613 6.8250635 9.68801271 5.98171862 0 5 C0 3.35 0 1.7 0 0 Z M352 216 C336.73720409 259.63227421 327.28411542 303.67113007 326 350 C325.96495361 351.24523438 325.96495361 351.24523438 325.92919922 352.515625 C324.79453297 400.41951787 328.79923969 464.56441352 363.19140625 501.51171875 C368.17878793 505.93030307 373.16733315 508.88012865 380 509 C386.10285491 507.57638948 391.07211887 504.78965288 394.6953125 499.546875 C401.70794694 485.82816937 402.53356328 471.53419426 402.375 456.4375 C402.36802094 455.23938187 402.36802094 455.23938187 402.36090088 454.01705933 C402.01499633 402.77313728 391.08396495 351.43452524 378.4909668 301.93322754 C378.01625853 300.06401948 377.5461334 298.19364933 377.07617188 296.32324219 C370.23593603 269.23561275 361.99700208 242.44796812 353 216 C352.67 216 352.34 216 352 216 Z " fill="#FFFFFF" transform="translate(391,1820)"/>
<path d="M0 0 C2.71598368 -0.00217086 5.43154952 -0.02034353 8.14746094 -0.03930664 C24.64144035 -0.09444732 40.96222978 0.82908863 56.99902344 4.93530273 C58.58058228 5.32999756 58.58058228 5.32999756 60.1940918 5.73266602 C101.64914165 16.38102962 135.73078759 42.2412027 157.99902344 78.68530273 C180.66466124 117.03182077 186.71658906 163.19072532 175.99902344 206.33374023 C169.58450936 230.84410161 158.25490061 252.39470082 141.24902344 271.18530273 C140.52328125 272.0425293 139.79753906 272.89975586 139.04980469 273.78295898 C128.85488099 285.67389586 116.5321536 295.01237042 103.24902344 303.18530273 C102.62302246 303.57314941 101.99702148 303.96099609 101.35205078 304.3605957 C67.61829379 324.99537652 28.00052617 331.47952011 -10.75097656 335.18530273 C-10.16533936 335.26981689 -9.57970215 335.35433105 -8.97631836 335.44140625 C41.02809652 342.82100821 87.73677867 359.35354406 124.71777344 394.72143555 C125.75470684 395.71273859 126.79654113 396.69893606 127.84277344 397.68041992 C170.49367435 437.79379728 183.32746332 496.12067521 197.53547478 550.60785484 C215.35954679 653.10490953 215.35954679 653.10490953 264.24902344 737.18530273 C267.87656792 738.95771861 270.72671819 739.43494509 274.74902344 739.37280273 C276.12574219 739.36313477 276.12574219 739.36313477 277.53027344 739.35327148 C280.18768031 739.18909261 282.6552859 738.77265272 285.24902344 738.18530273 C285.57902344 739.50530273 285.90902344 740.82530273 286.24902344 742.18530273 C267.41333772 755.13166354 243.19824527 763.24497768 220.33886719 763.38842773 C219.6089003 763.39412781 218.87893341 763.39982788 218.12684631 763.40570068 C216.58986833 763.41508193 215.05287086 763.42165702 213.51586914 763.42553711 C211.2162568 763.43517808 208.91756516 763.46623991 206.61816406 763.49780273 C173.51659707 763.73676145 146.77672716 748.4059118 123.24902344 726.18530273 C122.43949219 725.44022461 121.62996094 724.69514648 120.79589844 723.92749023 C104.78943301 708.67604676 94.40398274 688.94253295 84.74902344 669.31030273 C84.26385254 668.33996094 83.77868164 667.36961914 83.27880859 666.36987305 C72.66596363 644.31424412 65.24695205 620.69933131 57.73236084 597.45132446 C55.51325804 590.58665033 53.26865589 583.73028781 51.02605438 576.87326241 C50.51608032 575.31377589 50.00631957 573.7542196 49.49677277 572.19459343 C15.10265115 451.87036368 15.10265115 451.87036368 -63.7199707 343.70507812 C-76.13478453 337.48017147 -87.53046366 336.41685653 -101.18847656 336.37280273 C-102.90270017 336.34959149 -104.61689584 336.32421277 -106.33105469 336.29663086 C-110.4711335 336.2346251 -114.61047608 336.20162534 -118.75097656 336.18530273 C-118.79831772 352.94862396 -118.83326211 369.71192256 -118.85460091 386.47529507 C-118.8647852 394.26398948 -118.87864763 402.05264124 -118.90185547 409.84130859 C-124.93822936 507.5662347 -124.93822936 507.5662347 -93.17675781 595.00170898 C-84.40099076 603.47999241 -72.35684671 605.12301681 -60.75097656 606.18530273 C-60.75097656 607.50530273 -60.75097656 608.82530273 -60.75097656 610.18530273 C-117.24219244 611.15236332 -181.65505875 608.52496548 -224.83691406 567.15405273 C-258.04108995 534.10329548 -263.75750684 484.07861117 -263.98475647 439.63725281 C-263.99360658 435.04966148 -263.98518086 430.46232294 -263.96844876 425.87477648 C-263.95751438 422.23661153 -263.95864421 418.59844474 -263.95817566 414.96026611 C-263.9558389 408.68455146 -263.94637232 402.40888229 -263.93187141 396.13318443 C-263.91093658 387.02749655 -263.90246386 377.92182746 -263.89695006 368.81611869 C-263.88774051 353.99100643 -263.87034931 339.16591655 -263.84692383 324.34082031 C-263.84553051 323.45780189 -263.8441372 322.57478347 -263.84270167 321.66500691 C-263.84130613 320.78097362 -263.8399106 319.89694032 -263.83847278 318.98611814 C-263.81872022 306.46438049 -263.80087494 293.94264214 -263.78540039 281.42089844 C-263.78430954 280.53989441 -263.78321869 279.65889038 -263.78209478 278.75118925 C-263.76397041 263.97641035 -263.75005035 249.20162915 -263.73822874 234.42684394 C-263.73071276 225.36199515 -263.71907814 216.29716937 -263.70176708 207.23233388 C-263.69005364 201.0062385 -263.68195662 194.78014497 -263.67650158 188.55404099 C-263.67322556 184.98363045 -263.66836174 181.41324342 -263.65868759 177.84284401 C-263.59665167 152.83870296 -263.86410723 127.79571721 -266.06347656 102.87280273 C-266.12755707 102.12868134 -266.19163757 101.38455994 -266.25765991 100.6178894 C-269.19161479 55.8230391 -269.19161479 55.8230391 -290.75097656 18.18530273 C-300.03396911 11.01567232 -310.35253218 9.56349302 -321.75097656 8.18530273 C-321.75097656 6.86530273 -321.75097656 5.54530273 -321.75097656 4.18530273 C-267.54294862 3.13538563 -202.92563032 5.05863154 -161.19238281 44.50170898 C-156.1110233 49.43714872 -151.51516863 54.15537395 -147.75097656 60.18530273 C-143.95285111 58.91926092 -143.00537363 57.26485436 -140.56347656 54.12280273 C-112.97978755 19.85215881 -69.7603723 5.79328142 -27.27294922 0.89990234 C-18.18807925 0.02985722 -9.1179186 -0.00081149 0 0 Z M-132.68847656 50.81030273 C-138.81514993 57.04616992 -138.81514993 57.04616992 -143.75097656 64.18530273 C-143.54993103 68.2324367 -140.91496772 71.89823381 -139.06347656 75.43530273 C-129.74177698 93.78406848 -124.62361131 112.84843074 -122.00097656 133.24780273 C-121.82755737 134.59068359 -121.82755737 134.59068359 -121.65063477 135.96069336 C-119.14910012 157.43172417 -119.54707318 179.15274225 -119.44765353 200.73341084 C-119.42551194 205.33244423 -119.39826355 209.93144756 -119.37159729 214.53045654 C-119.32204552 223.20668589 -119.27697049 231.88293225 -119.23357493 240.55919433 C-119.18387803 250.45066275 -119.12908221 260.34210098 -119.07389534 270.23354006 C-118.96065261 290.55076605 -118.8536921 310.86802097 -118.75097656 331.18530273 C-110.16124036 331.25539686 -101.57162741 331.308411 -92.98167419 331.34073925 C-88.99125938 331.35626993 -85.0010429 331.37727175 -81.01074219 331.41162109 C-77.14627182 331.44467189 -73.28198992 331.4622499 -69.41738892 331.46993446 C-67.95688925 331.47539731 -66.49639765 331.48605925 -65.03598022 331.5024929 C-49.83036891 331.66649569 -35.75387873 329.51563027 -21.75097656 323.18530273 C-20.81769531 322.76635742 -19.88441406 322.34741211 -18.92285156 321.91577148 C-11.00630647 317.99142699 -4.92420675 312.37324109 1.24902344 306.18530273 C2.56773437 304.88399414 2.56773437 304.88399414 3.91308594 303.55639648 C27.154244 279.4158128 37.27764201 241.57027829 37.45214844 208.80639648 C37.46273788 207.48497398 37.46273788 207.48497398 37.47354126 206.13685608 C37.69134312 179.02303256 37.69134312 179.02303256 34.24902344 152.18530273 C34.05034668 151.14132324 33.85166992 150.09734375 33.64697266 149.02172852 C26.50766522 112.18076304 13.62531777 76.40342182 -11.75097656 48.18530273 C-12.34136719 47.45182617 -12.93175781 46.71834961 -13.54003906 45.96264648 C-26.0413776 30.47453495 -44.68060418 21.89559886 -64.12597656 19.37280273 C-90.32832331 17.60593 -114.59366836 33.26567451 -132.68847656 50.81030273 Z " fill="#FFFFFF" transform="translate(2113.7509765625,1816.814697265625)"/>
<path d="M0 0 C1.59277751 1.32748051 3.20211802 2.63292589 4.8125 3.93896484 C19.30235011 15.86420232 33.24046287 29.31045107 44.5625 44.30224609 C45.56992664 45.58352299 46.5792006 46.86334854 47.58984375 48.14208984 C98.79640683 113.38282024 120.74040786 196.13546665 111.5625 278.30224609 C102.08954267 352.60820167 65.94502964 428.66313193 6.36328125 476.04833984 C4.55765077 477.50140649 2.78102049 478.9916443 1.04296875 480.52490234 C-13.72144849 493.47349081 -30.96170236 504.36782014 -48.4375 513.30224609 C-49.32953125 513.76050781 -50.2215625 514.21876953 -51.140625 514.69091797 C-121.35441327 550.40150208 -202.69677728 557.07612919 -277.8828125 533.30224609 C-329.26725005 516.44759847 -379.32202583 484.8203619 -413.234375 442.06396484 C-415.52898827 439.18756133 -417.91614939 436.40672062 -420.3125 433.61474609 C-429.45118193 422.65968018 -437.215826 410.58610324 -444.4375 398.30224609 C-444.99123291 397.3731543 -444.99123291 397.3731543 -445.55615234 396.42529297 C-473.37892455 349.45628875 -486.64967491 295.60145537 -486.6875 241.23974609 C-486.68817474 240.36163269 -486.68884949 239.48351929 -486.68954468 238.57879639 C-486.60356954 167.67260583 -462.30015106 99.24065958 -417.4375 44.30224609 C-416.79603027 43.50415527 -416.79603027 43.50415527 -416.14160156 42.68994141 C-409.3827563 34.3142944 -401.95804253 26.61674875 -394.375 18.98974609 C-393.46516357 18.07064453 -392.55532715 17.15154297 -391.61791992 16.20458984 C-385.53215223 10.14672596 -379.17374899 4.62317513 -372.4375 -0.69775391 C-371.84557861 -1.17462646 -371.25365723 -1.65149902 -370.64379883 -2.14282227 C-329.10874722 -35.54627759 -278.17676953 -56.71621788 -225.4375 -63.69775391 C-224.13377441 -63.87346924 -224.13377441 -63.87346924 -222.80371094 -64.05273438 C-144.14386204 -74.14386634 -60.98722472 -50.86715712 0 0 Z M-372.4375 11.36474609 C-393.59581926 35.21352667 -400.89864223 65.25215905 -400.8125 96.48974609 C-400.81162384 97.27293213 -400.81074768 98.05611816 -400.80984497 98.86303711 C-400.53809506 173.11752436 -362.7290467 248.62254331 -326.08398438 311.46679688 C-324.3138844 314.51512741 -322.56943031 317.57722595 -320.828125 320.64208984 C-308.83147161 341.70235964 -296.1305561 362.30032468 -282.4375 382.30224609 C-281.61233887 383.5080835 -281.61233887 383.5080835 -280.77050781 384.73828125 C-260.0156566 414.95748508 -236.87100574 447.7621879 -208.4375 471.30224609 C-207.42471741 472.19670974 -206.41454714 473.09413543 -205.40625 473.99365234 C-173.21265713 502.52361249 -135.89734479 519.66912061 -92.4375 517.30224609 C-85.94632009 516.58689157 -79.70650862 515.0944591 -73.4375 513.30224609 C-72.19742187 512.96322266 -70.95734375 512.62419922 -69.6796875 512.27490234 C-36.23750285 502.12668 -3.54547185 479.29247633 13.57250977 448.37109375 C35.47464992 407.27635654 31.42760086 357.81305096 18.42138672 314.453125 C9.01885756 283.7333538 -3.47165371 254.20332284 -17.4375 225.30224609 C-17.97375 224.19123535 -18.51 223.08022461 -19.0625 221.93554688 C-26.13624011 207.36083655 -33.72301391 193.1600823 -41.81689453 179.12890625 C-43.44781517 176.28425437 -45.05389771 173.42697658 -46.65234375 170.56396484 C-57.60049959 150.96106147 -69.24065221 131.92143306 -81.6875 113.23974609 C-82.14736298 112.5489093 -82.60722595 111.85807251 -83.08102417 111.14630127 C-99.83695988 86.01670264 -117.69838625 61.20269428 -138.1015625 38.88427734 C-139.98772094 36.79940991 -141.82880467 34.68917867 -143.6640625 32.56005859 C-153.55578334 21.23688524 -164.39886931 10.33548813 -176.4375 1.30224609 C-176.98937988 0.87927246 -177.54125977 0.45629883 -178.10986328 0.02050781 C-241.38310888 -48.42548414 -315.68409582 -47.87161952 -372.4375 11.36474609 Z " fill="#FFFFFF" transform="translate(1687.4375,1884.69775390625)"/>
<path d="M0 0 C10.19479787 -0.09823681 20.32050841 0.12522955 30.5 0.75 C31.20288147 0.79290161 31.90576294 0.83580322 32.62994385 0.88000488 C84.50811421 4.13192616 138.81002282 14.62281946 179 50 C180.25876953 51.09441406 180.25876953 51.09441406 181.54296875 52.2109375 C212.60989732 79.66543252 232.72586371 115.37948412 245.671875 154.46875 C245.93033833 155.24588726 246.18880165 156.02302452 246.4550972 156.8237114 C252.08236418 173.79457865 256.98400031 190.94067846 261.70501328 208.18204117 C262.62882008 211.55049893 263.55946133 214.91705669 264.48970318 218.28374195 C267.68439033 229.84913196 270.84743392 241.42306665 274 253 C274.23662605 253.86858391 274.47325211 254.73716782 274.71704865 255.63207245 C292.54806842 321.09594343 309.56277851 386.75129861 325.8125 452.625 C326.14634893 453.97809076 326.14634893 453.97809076 326.48694229 455.35851669 C330.55556425 471.84975196 334.62257741 488.34138717 338.64788723 504.843256 C340.05617651 510.6148566 341.47475154 516.38387567 342.89706421 522.15203857 C343.44908965 524.39976117 343.99722111 526.64844519 344.54067993 528.89825439 C347.42642579 540.8431988 350.68428233 552.59398316 354.515625 564.2734375 C354.87033875 565.36677399 355.22505249 566.46011047 355.59051514 567.58657837 C359.58877899 579.46474918 364.10781313 592.40971865 375.5625 598.8125 C381.45859607 601.54900871 387.58386551 602.32620531 394 603 C394 604.32 394 605.64 394 607 C342.38183875 607.92906973 284.84067462 604.49575412 244 569 C243.16984375 568.29101562 242.3396875 567.58203125 241.484375 566.8515625 C220.12147961 548.17541162 205.97574792 523.68645654 195.25 497.6875 C194.8387085 496.69508301 194.42741699 495.70266602 194.00366211 494.68017578 C185.20394069 472.60365125 179.39786421 449.6066966 173.67689133 426.59167099 C172.61721641 422.33726625 171.54755057 418.08537398 170.47875977 413.83325195 C168.8663002 407.41483316 167.25661714 400.99572973 165.65044689 394.57573414 C160.5432226 374.16201607 155.38991667 353.75991592 150.23787689 333.35747147 C149.43587692 330.18107162 148.63418548 327.00459405 147.83258057 323.82809448 C139.24508131 289.80065044 130.58359722 255.79303266 121.81261826 221.81241989 C119.2607158 211.92485978 116.73413961 202.03116984 114.22596741 192.13243103 C93.91737442 104.34468159 93.91737442 104.34468159 50 27 C50.03480469 28.23492188 50.06960937 29.46984375 50.10546875 30.7421875 C51.10102194 81.26399811 23.93671871 131.94261075 4.05761719 177.29980469 C-4.35623377 196.50645088 -12.69474513 215.74618244 -21 235 C-21.40593384 235.94012939 -21.81186768 236.88025879 -22.23010254 237.84887695 C-44.43288642 289.31079978 -58.27628621 339.69719334 -37 394 C-29.09120613 413.10880577 -18.67545834 430.45540462 -5 446 C-4.17242188 446.96035156 -3.34484375 447.92070312 -2.4921875 448.91015625 C23.69765182 478.77847975 64.01133483 504.51614509 104 509 C116.28321837 509.78540495 129.08847993 509.25960006 139 501 C140.66524076 497.66951847 140.57981016 494.58686479 140 491 C136.73229245 482.03251249 131.2073019 475.10497325 125 468 C124.06781756 466.88750247 123.13823088 465.77282595 122.2109375 464.65625 C116.60432863 457.94515321 110.7608221 451.60815145 104.51586914 445.48632812 C101.60521982 442.62909737 98.82498191 439.74202408 96.1875 436.625 C94.05754394 434.10826087 91.85211843 431.92943547 89.3359375 429.80078125 C84.83803711 425.91142942 80.62932125 421.77708227 76.4375 417.5625 C75.72142578 416.85029297 75.00535156 416.13808594 74.26757812 415.40429688 C70.20264628 411.33196752 66.31139301 407.16828874 62.57641602 402.79077148 C60.95338208 400.94704314 59.25346228 399.21944449 57.5 397.5 C53.78760731 393.83677807 50.39649597 389.95508794 47 386 C46.09308347 384.96819103 45.18547816 383.93698723 44.27734375 382.90625 C29.13829068 365.63178842 15.02713876 347.93353112 12.625 324.3125 C13.98204434 312.32527499 19.36976165 302.39317123 28.64453125 294.6875 C41.25778768 285.65113718 58.20600961 285.31837967 73.05126953 287.43505859 C83.4619008 289.2800015 93.27874901 291.81367714 103 296 C103 297.65 103 299.3 103 301 C102.14728516 300.70996094 102.14728516 300.70996094 101.27734375 300.4140625 C89.31427352 295.71548696 89.31427352 295.71548696 77.125 297.3125 C74.73028028 298.89871285 74.73028028 298.89871285 74 302 C71.34436125 332.34393783 87.73464797 363.14558348 100 390 C100.29515503 390.64640442 100.59031006 391.29280884 100.89440918 391.95880127 C111.28001715 414.66698701 122.02480818 437.23383916 133.30102539 459.51293945 C145.41283094 483.4807041 155.79343527 507.82579568 147 535 C136.04421289 563.08299925 113.24472546 583.20064682 86.20703125 595.21875 C68.09111281 603.00096934 48.15686512 607.06143492 28.4375 607.23828125 C27.08634094 607.25297203 27.08634094 607.25297203 25.70788574 607.26795959 C-11.84673764 607.5923537 -11.84673764 607.5923537 -30 603 C-30.84739746 602.79632812 -31.69479492 602.59265625 -32.56787109 602.3828125 C-62.00509636 595.131217 -90.32358092 578.90573499 -107 553 C-126.33156531 520.48101029 -126.52857765 483.07716783 -117.75 447 C-112.64953102 427.26054773 -105.23488868 408.61978118 -97 390 C-96.51762878 388.90924164 -96.51762878 388.90924164 -96.0255127 387.79644775 C-87.85549309 369.34746688 -79.51856023 350.98201285 -70.875 332.75 C-62.60806328 315.30056757 -54.72864606 297.69387128 -47 280 C-46.58709717 279.05517761 -46.17419434 278.11035522 -45.7487793 277.13690186 C-32.41003607 246.59586975 -19.38415512 215.9412909 -7 185 C-6.65515564 184.13906738 -6.31031128 183.27813477 -5.95501709 182.39111328 C22.40088489 117.5208435 22.40088489 117.5208435 37 49 C37.07927734 47.87078125 37.07927734 47.87078125 37.16015625 46.71875 C37.6104619 34.65838989 34.71740354 20.3617588 26.37109375 11.21484375 C19.04298212 5.38295909 8.92243781 5.57369312 0 5 C0 3.35 0 1.7 0 0 Z " fill="#FFFFFF" transform="translate(2872,1820)"/>
<path d="M0 0 C27.7237238 21.59015658 43.74851977 52.27184629 48.26733398 86.88989258 C53.34350135 131.29194702 38.90178985 172.59884302 20.93414307 212.5255127 C19.8186138 215.01043418 18.71334407 217.49985033 17.60848999 219.98953247 C9.96753231 237.20680044 2.08944461 254.31310089 -5.83532715 271.40118408 C-64.36563931 396.54270206 -64.36563931 396.54270206 -107.91015625 574.40625 C-105.57088625 580.13786345 -103.10869644 585.83225362 -97.91015625 589.40625 C-90.44342747 591.82706357 -82.7224679 592.89483456 -74.91015625 593.40625 C-74.91015625 594.72625 -74.91015625 596.04625 -74.91015625 597.40625 C-96.13869554 597.80207761 -116.81630244 597.16710222 -137.91015625 594.40625 C-139.01858887 594.26171387 -140.12702148 594.11717773 -141.26904297 593.96826172 C-176.46566383 589.2111073 -213.04943852 578.89827385 -241.91015625 557.40625 C-242.95300781 556.65730469 -243.99585937 555.90835938 -245.0703125 555.13671875 C-298.088498 516.05769536 -317.99210464 454.19809098 -334.78729248 393.46472168 C-335.77794381 389.88243893 -336.77165186 386.30101021 -337.76599407 382.7197504 C-350.2699066 337.68335518 -362.56258528 292.59246419 -374.39496613 247.37472534 C-374.91514651 245.38718284 -375.43578091 243.39975968 -375.95648193 241.41235352 C-387.44969773 197.53136704 -398.30783916 153.51017869 -408.91015625 109.40625 C-418.03130451 50.18927854 -418.03130451 50.18927854 -445.9375 1.4765625 C-452.97396672 -2.34124321 -459.96947917 -4.07304986 -467.91015625 -4.59375 C-467.91015625 -6.24375 -467.91015625 -7.89375 -467.91015625 -9.59375 C-457.30169997 -9.68868812 -446.75379862 -9.49202666 -436.16015625 -8.84375 C-435.45693237 -8.80118073 -434.7537085 -8.75861145 -434.0291748 -8.7147522 C-384.31083463 -5.61904247 -337.06162622 5.9498058 -302.91015625 44.40625 C-279.3856845 72.3797778 -265.26590277 107.32067658 -255.6328125 142.22265625 C-255.42887312 142.9578587 -255.22493374 143.69306114 -255.01481438 144.45054245 C-247.92096042 170.10874433 -241.61645355 195.98445527 -235.15575922 221.80768692 C-231.92783016 234.70751586 -228.68505607 247.60362608 -225.44418335 260.5002079 C-224.69085614 263.49800134 -223.9377295 266.49584504 -223.18478394 269.49373436 C-215.79630087 298.91046703 -208.29905571 328.29802024 -200.70662498 357.66275406 C-197.90098418 368.51600193 -195.13658908 379.37939102 -192.38563156 390.24661827 C-191.04855455 395.52468612 -189.70680783 400.80156935 -188.36515999 406.07847691 C-187.30402801 410.25397792 -186.24578886 414.43015662 -185.19561768 418.60842896 C-165.96318406 499.40719462 -165.96318406 499.40719462 -124.91015625 570.40625 C-124.87277344 569.148125 -124.83539062 567.89 -124.796875 566.59375 C-124.73109058 564.86455956 -124.66464794 563.13539408 -124.59765625 561.40625 C-124.57509766 560.58640625 -124.55253906 559.7665625 -124.52929688 558.921875 C-123.93533626 544.66682029 -120.29738803 531.32473044 -115.72265625 517.90625 C-115.46649536 517.14535065 -115.21033447 516.38445129 -114.94641113 515.60049438 C-108.4048265 496.22076325 -100.70341026 477.30926335 -92.91015625 458.40625 C-92.5782428 457.60100891 -92.24632935 456.79576782 -91.90435791 455.96612549 C-90.91308838 453.56193381 -89.92144513 451.15789662 -88.9296875 448.75390625 C-87.61006511 445.55493943 -86.29099162 442.35574744 -84.97265625 439.15625 C-84.64695648 438.36596405 -84.32125671 437.5756781 -83.98568726 436.76144409 C-60.26426642 379.13324525 -37.70115982 321.46845249 -37.66015625 258.28125 C-37.65948151 257.34595459 -37.65880676 256.41065918 -37.65811157 255.44702148 C-37.6751276 240.56833139 -38.37023843 226.09316995 -40.91015625 211.40625 C-41.0817627 210.37258301 -41.25336914 209.33891602 -41.43017578 208.27392578 C-53.29746829 137.92919728 -88.23484604 64.71622718 -146.91015625 21.40625 C-147.93496094 20.63667969 -148.95976562 19.86710937 -150.015625 19.07421875 C-165.63679337 7.76916534 -182.43656367 -1.00406897 -201.91015625 -2.59375 C-201.91015625 -4.90375 -201.91015625 -7.21375 -201.91015625 -9.59375 C-200.62625 -9.63113281 -199.34234375 -9.66851563 -198.01953125 -9.70703125 C-177.21758986 -10.42625788 -157.63663678 -14.20143285 -137.41015625 -18.87890625 C-131.0941098 -20.33577996 -124.76749131 -21.70470069 -118.41015625 -22.96875 C-117.63478516 -23.12400146 -116.85941406 -23.27925293 -116.06054688 -23.43920898 C-76.61669235 -31.17701975 -32.82636301 -23.6966576 0 0 Z " fill="#FFFFFF" transform="translate(2758.91015625,1829.59375)"/>
<path d="M0 0 C34.40462341 -0.0915545 68.80921902 -0.16203818 103.21393794 -0.20426132 C107.27568213 -0.20926415 111.33742609 -0.21444144 115.39916992 -0.21972656 C116.61210057 -0.22130043 116.61210057 -0.22130043 117.84953486 -0.22290608 C130.94279255 -0.24031155 144.03597998 -0.27185001 157.129196 -0.30861118 C170.56394284 -0.34601668 183.9986529 -0.36823502 197.43344969 -0.37635398 C205.72353608 -0.38184258 214.01342393 -0.39917805 222.30344921 -0.43166587 C227.98815613 -0.45280893 233.67276039 -0.45920053 239.35750378 -0.45400551 C242.63743276 -0.45144335 245.9169416 -0.45755838 249.19682503 -0.4768219 C252.75483117 -0.49669636 256.31198488 -0.49194742 259.87001038 -0.48101807 C261.42109602 -0.49849512 261.42109602 -0.49849512 263.00351673 -0.51632524 C269.22350081 -0.46461293 272.92106536 0.33804593 278 4 C282.12135214 8.45551583 284.25724743 12.0360191 284.22705078 18.13574219 C284.22689972 19.15649841 284.22674866 20.17725464 284.22659302 21.22894287 C284.21627045 22.32386047 284.20594788 23.41877808 284.1953125 24.546875 C284.19106766 26.23638275 284.19106766 26.23638275 284.18673706 27.96002197 C284.17554374 31.55678946 284.15044037 35.15330779 284.125 38.75 C284.11496912 41.18879849 284.10584346 43.62760088 284.09765625 46.06640625 C284.07560716 52.04435582 284.04213784 58.02216011 284 64 C282.35 64 280.7 64 279 64 C278.85304688 62.98421875 278.70609375 61.9684375 278.5546875 60.921875 C276.22220894 46.10855839 271.16355718 34.01292641 258.9375 24.65625 C246.96875405 16.25880937 234.12325338 12.21008434 219.9375 9.25 C219.00059326 9.05116211 218.06368652 8.85232422 217.09838867 8.64746094 C194.23117591 4.22827306 170.8563776 4.62411926 147.67016602 4.62939453 C142.95979791 4.62960024 138.25001616 4.60196407 133.53978825 4.56785011 C129.87395 4.54559269 126.20825539 4.54155614 122.54235649 4.54261398 C120.80451821 4.54026921 119.0666753 4.53150973 117.32890511 4.51594925 C114.90902928 4.49624992 112.49045548 4.50213474 110.07055664 4.51416016 C109.36869232 4.50292114 108.666828 4.49168213 107.94369507 4.48010254 C102.01855186 4.55454384 96.76269351 6.39054433 92.43020725 10.48272133 C88.9982721 14.44679912 87.88171158 17.5111232 87.84178162 22.65068054 C87.8319928 23.60560394 87.82220398 24.56052734 87.81211853 25.54438782 C87.80636307 26.59023544 87.8006076 27.63608307 87.79467773 28.71362305 C87.78477814 29.8162146 87.77487854 30.91880615 87.76467896 32.05480957 C87.73303722 35.70709063 87.70829586 39.3593847 87.68359375 43.01171875 C87.66302654 45.54092247 87.64203013 48.07012273 87.62062073 50.59931946 C87.57102565 56.58095434 87.52576655 62.5626069 87.48259836 68.54429036 C87.43321027 75.35441912 87.37829798 82.16449981 87.32291877 88.97458208 C87.20912695 102.98300986 87.10228181 116.99148379 87 131 C91.29961956 130.85413305 95.59903529 130.70290966 99.8984375 130.55078125 C101.7091272 130.48945007 101.7091272 130.48945007 103.55639648 130.42687988 C123.38656853 129.71697722 142.90293398 127.71530092 161 119 C161.91007812 118.58234375 162.82015625 118.1646875 163.7578125 117.734375 C179.13263287 110.11266918 189.87661809 97.03762145 195.875 81.125 C199.06256146 70.72406415 199.92389422 59.78651985 201 49 C202.65 49 204.3 49 206 49 C206 106.09 206 163.18 206 222 C204.35 222 202.7 222 201 222 C200.94054199 221.1793103 200.94054199 221.1793103 200.87988281 220.34204102 C199.14006131 197.32785522 195.72598357 172.82402095 177.3515625 156.671875 C156.08214655 139.81265291 130.40378484 137.25881414 104.31640625 135.9140625 C102.63185746 135.82433367 100.94732762 135.7342485 99.26281738 135.64379883 C95.17541822 135.42509308 91.0877935 135.21120163 87 135 C87.06059267 156.60147352 87.13813372 178.20282744 87.23571491 199.80416679 C87.28063322 209.8346031 87.32005704 219.86500421 87.34643555 229.89550781 C87.36944773 238.64060919 87.40288172 247.38559883 87.44870156 256.13061154 C87.47259035 260.75875119 87.49134757 265.38678047 87.49761391 270.01498032 C87.50368444 274.37674323 87.52375506 278.73822392 87.55427551 283.09988213 C87.56302428 284.69531859 87.56678491 286.29079199 87.56500816 287.88625145 C87.55698419 298.42202846 87.6961689 308.88752779 94.4921875 317.53515625 C101.90625082 324.73793797 113.26661005 325.32009408 123 326 C123 327.65 123 329.3 123 331 C82.74 331 42.48 331 1 331 C1 329.35 1 327.7 1 326 C2.05058594 325.90203125 3.10117188 325.8040625 4.18359375 325.703125 C14.63951422 324.63075484 23.88204636 323.58341468 31 315 C36.47966411 307.69378119 36.29297873 298.41767445 36.26069641 289.66555786 C36.26452196 288.55490302 36.26834751 287.44424818 36.27228898 286.29993713 C36.28257161 282.59460334 36.27863579 278.88942588 36.2746582 275.18408203 C36.27900729 272.52082815 36.28412699 269.85758556 36.29014587 267.19433594 C36.30286673 260.72080032 36.30468984 254.24730623 36.30234561 247.77376021 C36.30055937 242.50947636 36.30231864 237.24520506 36.30657005 231.9809227 C36.30716524 231.2304198 36.30776043 230.47991691 36.30837366 229.7066715 C36.30958546 228.18180435 36.3107996 226.6569372 36.31201603 225.13207005 C36.32288149 210.84588271 36.32073379 196.55971901 36.31463119 182.27353035 C36.30946283 169.2191205 36.32071709 156.16478529 36.33972941 143.1103902 C36.35912573 129.68888782 36.36736067 116.26742072 36.36360615 102.84590423 C36.36169684 95.31765592 36.36415531 87.78947113 36.37832069 80.26123428 C36.39025835 73.85236019 36.39161273 67.44358873 36.37953053 61.03471316 C36.3736585 57.76848109 36.37413597 54.50247436 36.38453293 51.23624802 C36.39501463 47.68679604 36.38688764 44.13784373 36.3742218 40.58840942 C36.38528323 39.05817302 36.38528323 39.05817302 36.39656812 37.49702275 C36.32539703 27.97828777 35.03195886 18.68880808 28.125 11.65234375 C20.23066053 5.51391434 9.60435502 4.98506205 0 4 C0 2.68 0 1.36 0 0 Z " fill="#FFFFFF" transform="translate(3327,2097)"/>
<path d="M0 0 C1.10597585 -0.00538554 2.21195171 -0.01077108 3.35144198 -0.01631981 C7.06478031 -0.03065003 10.77776471 -0.02348296 14.49111938 -0.01637268 C17.15042758 -0.02207362 19.80971018 -0.02893595 22.4690094 -0.03717041 C28.94711476 -0.05436977 35.42512317 -0.05519601 41.90324543 -0.04995751 C47.16909487 -0.04591635 52.43491564 -0.04735871 57.7007637 -0.05270576 C58.82490028 -0.0538284 58.82490028 -0.0538284 59.97174669 -0.05497371 C61.49420591 -0.05650519 63.01666512 -0.05804354 64.53912432 -0.05958868 C78.81803063 -0.07331806 93.09688216 -0.06787317 107.37578721 -0.05640347 C120.4364116 -0.04647262 133.4968943 -0.05940836 146.55749683 -0.08333766 C159.96982086 -0.10772609 173.38207889 -0.11733704 186.79442465 -0.11068493 C194.32373971 -0.10719188 201.85294581 -0.10943031 209.38224411 -0.12693596 C215.79245687 -0.14165485 222.20248396 -0.1422977 228.61269306 -0.12486505 C231.88251037 -0.1163495 235.15192753 -0.11638473 238.42173958 -0.1295166 C241.96856714 -0.14267422 245.51449089 -0.13122389 249.0612793 -0.11352539 C250.60724905 -0.1279329 250.60724905 -0.1279329 252.18445051 -0.14263147 C259.19852408 -0.07053862 263.60976731 1.13415293 268.89981079 5.9853363 C272.2050247 10.2593198 273.28432763 13.0724226 273.27114868 18.40989685 C273.27107315 19.43072861 273.27099762 20.45156036 273.2709198 21.50332642 C273.26575851 22.6034053 273.26059723 23.70348419 273.25527954 24.8368988 C273.25315712 26.52852898 273.25315712 26.52852898 273.25099182 28.2543335 C273.24538799 31.86130917 273.23283482 35.46822309 273.22012329 39.07518005 C273.21510879 41.51853853 273.21054579 43.96189798 273.20645142 46.40525818 C273.19541732 52.39941992 273.17867544 58.39354558 273.15762329 64.38768005 C271.50762329 64.38768005 269.85762329 64.38768005 268.15762329 64.38768005 C268.0626355 63.83418884 267.96764771 63.28069763 267.86978149 62.71043396 C264.96309417 46.13282852 261.53578741 33.1558605 247.55215454 22.37986755 C228.02750156 9.36343224 204.10969672 6.49787071 181.15762329 5.38768005 C180.25334595 5.34240173 179.3490686 5.29712341 178.41738892 5.25047302 C175.83045268 5.13789513 173.24642315 5.06493527 170.65762329 5.01268005 C169.89868774 4.98649597 169.1397522 4.96031189 168.3578186 4.93333435 C162.85456225 4.91660901 159.63550467 6.14010767 155.15762329 9.38768005 C151.05712483 14.15265123 151.73943694 19.61329166 151.77667236 25.56259155 C151.76965241 27.27540018 151.76965241 27.27540018 151.76249063 29.022811 C151.75050271 32.85801164 151.76001326 36.69285746 151.7694397 40.52806091 C151.76702617 43.27452839 151.76014301 46.0209807 151.75350952 48.7674408 C151.74016153 55.46046141 151.74305577 62.15338115 151.75174744 68.84640574 C151.75852449 74.2909692 151.7594406 79.73550441 151.75617599 85.18007088 C151.75548645 86.34280628 151.75548645 86.34280628 151.75478297 87.5290313 C151.75382376 89.1039004 151.75285112 90.67876949 151.75186519 92.25363857 C151.74330686 107.02872868 151.75314971 121.803763 151.76926629 136.57884396 C151.78264604 149.23593522 151.78036162 161.89294384 151.76651001 174.55003357 C151.75042082 189.25854701 151.74415596 203.96701138 151.7533468 218.6755324 C151.75430239 220.24733737 151.75524551 221.81914235 151.75617599 223.39094734 C151.75663882 224.16421742 151.75710165 224.9374875 151.7575785 225.73419 C151.76016018 231.16288246 151.75581469 236.59154363 151.74873734 242.02023125 C151.74028391 248.65017302 151.74268159 255.28000836 151.75857957 261.90993809 C151.76641479 265.28792714 151.7679965 268.66559429 151.75963211 272.0436039 C150.83071129 297.24685209 150.83071129 297.24685209 161.15762329 319.38768005 C168.53451184 325.33134455 178.08126728 325.63319388 187.15762329 326.38768005 C187.15762329 328.03768005 187.15762329 329.68768005 187.15762329 331.38768005 C146.56762329 331.38768005 105.97762329 331.38768005 64.15762329 331.38768005 C64.15762329 329.73768005 64.15762329 328.08768005 64.15762329 326.38768005 C65.19660767 326.30131287 66.23559204 326.21494568 67.30606079 326.1259613 C80.89195834 324.8672374 80.89195834 324.8672374 91.98965454 317.4462738 C99.94093672 306.6317562 100.30883288 292.97205166 100.29806519 280.06391907 C100.30103631 278.94242372 100.30400743 277.82092837 100.30706859 276.66544831 C100.31572152 272.91774058 100.31726092 269.17006493 100.3187561 265.42234802 C100.32338647 262.73142854 100.32839111 260.04051192 100.33380127 257.34959412 C100.34734276 250.0482466 100.35340175 242.74690461 100.35781193 235.44554663 C100.36057943 230.88517103 100.3648175 226.32479754 100.3693161 221.76442337 C100.38149947 209.13162049 100.39180311 196.49881929 100.39519119 183.86601067 C100.39541076 183.05867552 100.39563032 182.25134038 100.39585654 181.41954053 C100.39607482 180.61032234 100.3962931 179.80110415 100.39651799 178.96736419 C100.39696145 177.32768432 100.39740802 175.68800445 100.39785767 174.04832458 C100.3980791 173.23499401 100.39830053 172.42166344 100.39852867 171.58368649 C100.40248101 158.39004252 100.41995248 145.19645364 100.44321719 132.00283097 C100.46692366 118.4491778 100.47939259 104.8955523 100.48055911 91.34187806 C100.48147586 83.73496184 100.4872288 76.12811756 100.50537872 68.52122116 C100.52076966 62.04814096 100.52590586 55.57515497 100.51764062 49.10205995 C100.51373154 45.79999488 100.51630559 42.49815951 100.52869797 39.19610977 C100.54134673 35.61639985 100.5355789 32.03717982 100.52511597 28.45747375 C100.53317237 27.41428793 100.54122878 26.3711021 100.54952931 25.29630458 C100.50733039 19.13945047 99.96112646 14.53507962 95.69277954 9.7431488 C84.79404771 1.09932701 64.70615597 5.30906485 51.65371704 6.70018005 C30.57594499 9.20049123 7.08320472 13.83383318 -7.12753296 31.0087738 C-14.30046023 40.95937223 -17.08157517 52.2935591 -17.84237671 64.38768005 C-19.82237671 64.38768005 -21.80237671 64.38768005 -23.84237671 64.38768005 C-23.91864593 57.53757383 -23.97106857 50.68757776 -24.00717163 43.83714294 C-24.02222759 41.50832527 -24.04267675 39.17953581 -24.06869507 36.85081482 C-24.10521804 33.49714684 -24.12213542 30.14385487 -24.13534546 26.7900238 C-24.15082932 25.75433762 -24.16631317 24.71865143 -24.18226624 23.65158081 C-24.1839624 16.31210615 -23.40247756 11.35200735 -18.46737671 5.63768005 C-12.25874919 0.31599933 -7.98736556 -0.04637625 0 0 Z " fill="#FFFFFF" transform="translate(3847.8423767089844,2096.612319946289)"/>
<path d="M0 0 C40.59 0 81.18 0 123 0 C123 1.32 123 2.64 123 4 C121.81664063 4.15855469 120.63328125 4.31710938 119.4140625 4.48046875 C105.05656639 6.14415244 105.05656639 6.14415244 93.36328125 13.85546875 C86.93599137 23.3766976 86.84877931 34.6715652 86.86628723 45.74516296 C86.8628889 47.33424295 86.8628889 47.33424295 86.85942191 48.95542556 C86.85310888 52.4933255 86.85390954 56.03118686 86.85473633 59.5690918 C86.85174313 62.11072336 86.84834023 64.65235447 86.84455872 67.19398499 C86.83664679 73.37488097 86.83350473 79.55576291 86.83294634 85.73666348 C86.83247021 90.76449001 86.83041062 95.7923134 86.82724571 100.82013893 C86.81844389 115.0947791 86.81382552 129.36941177 86.81457619 143.64405467 C86.81463612 144.797075 86.81463612 144.797075 86.81469727 145.97338867 C86.81475859 147.12782736 86.81475859 147.12782736 86.81482115 148.30558804 C86.81522734 160.77023963 86.80566319 173.23486096 86.7915589 185.6995038 C86.77716992 198.51755265 86.77029012 211.33558678 86.77115268 224.15364391 C86.7714838 231.34213941 86.76877377 238.53060322 86.75797462 245.71909142 C86.74787756 252.48327511 86.74823068 259.24738099 86.75549126 266.01157188 C86.7565342 268.48784483 86.75419154 270.96412198 86.7481308 273.44038773 C85.43377149 297.06819177 85.43377149 297.06819177 94.65234375 317.7109375 C102.708617 324.46568603 112.84802722 325.43054698 123 326 C123 327.65 123 329.3 123 331 C82.41 331 41.82 331 0 331 C0 329.35 0 327.7 0 326 C1.03898437 325.90203125 2.07796875 325.8040625 3.1484375 325.703125 C17.56147712 324.41193762 17.56147712 324.41193762 29.4375 316.8125 C36.3171105 307.71742171 36.1507965 296.07085329 36.13371277 285.17218018 C36.1371111 283.56979118 36.1371111 283.56979118 36.14057809 281.9350307 C36.14689164 278.36715781 36.14609042 274.79932316 36.14526367 271.23144531 C36.14825682 268.66848705 36.1516597 266.10552924 36.15544128 263.54257202 C36.16335329 257.30987412 36.16649526 251.07719015 36.16705366 244.8444877 C36.16752975 239.77517661 36.1695891 234.70586863 36.17275429 229.63655853 C36.18155577 215.24617766 36.18617447 200.85580422 36.18542381 186.46542063 C36.18536388 185.30304523 36.18536388 185.30304523 36.18530273 184.1171875 C36.18524141 182.9533835 36.18524141 182.9533835 36.18517885 181.76606831 C36.18477256 169.19727685 36.19433918 156.62851538 36.2084411 144.05973259 C36.22282553 131.13659743 36.22971014 118.21347687 36.22884732 105.29033351 C36.22851606 98.04206624 36.23123208 90.7938304 36.24202538 83.54557037 C36.2521151 76.72640004 36.25177394 69.90729697 36.24450874 63.08812332 C36.24346499 60.5904671 36.24581331 58.09280672 36.2518692 55.59515762 C36.25962175 52.17527932 36.25492266 48.75562804 36.24723816 45.33575439 C36.25238172 44.356737 36.25752529 43.3777196 36.26282471 42.36903501 C36.20910744 31.48717028 35.44900156 20.51314464 28 12 C20.35966475 5.74334751 9.44399607 5.26537202 0 4 C0 2.68 0 1.36 0 0 Z " fill="#FFFFFF" transform="translate(3653,2097)"/>
</svg>
