<?xml version="1.0" encoding="utf-8"?>
<!-- Generator: Adobe Illustrator 27.9.0, SVG Export Plug-In . SVG Version: 6.00 Build 0)  -->
<svg version="1.1" id="Layer_1" xmlns="http://www.w3.org/2000/svg" xmlns:xlink="http://www.w3.org/1999/xlink" x="0px" y="0px"
	 viewBox="0 0 1080 1080" style="enable-background:new 0 0 1080 1080;" xml:space="preserve" fill="#ffffff" >
<g>
	<path d="M214.74,425.97c9.26-5.12,19.07-8.1,29.41-8.94c10.35-0.84,20,0.57,28.97,4.21c8.97,3.65,16.01,9.71,21.14,18.18
		c7.29,13.7,10.89,29.56,10.79,47.59c-0.1,18.03-1.43,36.31-3.99,54.84c-1.87,15.27-3.01,29.44-3.4,42.5
		c-0.39,13.06,1.43,23.94,5.47,32.67c4.04,8.72,11.68,14.11,22.91,16.18v0.74c-6.11,0-12.98-0.39-20.62-1.18
		c-7.64-0.79-15.15-2.68-22.54-5.69c-7.39-3-13.99-7.61-19.81-13.82c-5.81-6.21-10.12-14.63-12.93-25.28
		c-2.81-10.64-3.38-24.04-1.7-40.2c3.84-35.87,4.95-63.48,3.33-82.85s-5.42-31.93-11.38-37.69c-5.96-5.76-13.52-6.04-22.69-0.81
		c-10.74,6.01-20.05,12.81-27.94,20.4c9.26,12.81,16.8,27.54,22.61,44.19c5.81,16.65,9.39,33.28,10.72,49.89
		c1.33,16.6-0.1,31.21-4.29,43.82c-4.19,12.61-11.65,21.33-22.39,26.16c-10.15,3.84-18.94,2.86-26.38-2.96
		c-7.44-5.81-13.08-14.9-16.92-27.27c-3.84-12.37-5.4-26.41-4.66-42.13c0.74-15.72,4.21-31.61,10.42-47.67
		c-5.12-14.39-10.79-26.92-17-37.62c-6.21-10.69-12.64-17.76-19.29-21.21c-6.65-3.45-13.18-1.48-19.58,5.91
		c-1.68,2.17-2.81,4.04-3.4,5.62c4.14,8.18,6.21,19.36,6.21,33.55l-0.15,94.89c0,13.21,0.47,23.75,1.4,31.63
		c0.94,7.88,2.29,13.87,4.06,17.96c1.77,4.09,3.97,6.82,6.58,8.2c2.61,1.38,5.54,2.07,8.79,2.07v1.18c-10.54,0-20.2-0.71-28.97-2.14
		c-8.77-1.43-16.36-4.24-22.76-8.43c-6.41-4.19-11.38-10.27-14.93-18.26c-3.55-7.98-5.32-18.48-5.32-31.48l0.15-95.04
		c0-13.2-0.47-23.75-1.4-31.63c-0.94-7.88-2.29-13.87-4.06-17.96c-1.77-4.09-3.97-6.82-6.58-8.2c-2.61-1.38-5.54-2.07-8.79-2.07
		v-1.18c9.95,0,19.14,0.64,27.57,1.92c8.43,1.28,15.79,3.75,22.1,7.39c6.31,3.65,11.33,8.92,15.08,15.82
		c3.35-6.4,8.84-12.02,16.48-16.85c7.64-4.83,16.13-7.54,25.5-8.13c9.07-0.3,17.66,2.12,25.79,7.24
		c8.13,5.12,15.59,12.22,22.39,21.28C196.21,437.94,204.89,431.49,214.74,425.97z M173.65,595.95c2.96-3.05,4.19-9.98,3.7-20.77
		c-0.49-10.79-2.32-23.53-5.47-38.21c-3.15-14.68-7.29-29.41-12.42-44.19c-5.32,14.39-8.38,28.43-9.16,42.13
		c-0.79,13.7-0.03,25.79,2.29,36.29c2.31,10.49,5.42,18.11,9.31,22.84C165.79,598.76,169.71,599.4,173.65,595.95z"/>
	<g>
		<path d="M422.55,616.14c-5.76,5.81-12.27,10.25-19.55,13.32c-7.28,3.07-14.93,4.61-22.95,4.61c-8.02,0-15.68-1.54-22.95-4.61
			c-7.28-3.07-13.77-7.51-19.47-13.32c-5.7-5.87-10.06-12.52-13.07-19.96c-3.02-7.44-4.52-15.26-4.52-23.45
			c0-8.19,1.51-15.99,4.52-23.41c3.02-7.42,7.37-14.06,13.07-19.92c5.7-5.81,12.19-10.25,19.47-13.32
			c7.28-3.07,14.93-4.61,22.95-4.61c8.02,0,15.67,1.54,22.95,4.61c7.28,3.07,13.79,7.51,19.55,13.32
			c5.64,5.87,9.97,12.51,12.99,19.92c3.02,7.42,4.52,15.22,4.52,23.41c0,8.19-1.51,16.01-4.52,23.45
			C432.53,603.62,428.2,610.27,422.55,616.14z M353.32,589.16c5.59,9.79,11.36,18.07,17.31,24.82c5.95,6.75,12.17,11.19,18.68,13.32
			c6.5,2.13,13.38,1.18,20.63-2.86c7.08-4.21,11.32-9.7,12.7-16.48c1.38-6.78,0.62-14.46-2.28-23.04
			c-2.91-8.58-7.21-17.74-12.91-27.48c-5.59-9.79-11.43-18.18-17.51-25.15c-6.09-6.97-12.45-11.63-19.09-13.99
			c-6.64-2.35-13.56-1.51-20.75,2.53c-7.14,4.26-11.32,9.88-12.53,16.85c-1.22,6.97-0.32,14.86,2.7,23.66
			C343.27,570.15,347.62,579.42,353.32,589.16z"/>
		<path d="M539.51,611.16c1.38,5.15,2.63,9.82,3.74,14.03c3.38,13.28,6.18,22.62,8.43,28.02s4.99,7.32,8.26,5.77l0.25,0.42
			c-0.78,0.77-2.79,1.78-6.06,3.03c-3.27,1.24-7.18,1.7-11.75,1.37s-9.16-2.5-13.78-6.52c-4.62-4.01-8.62-10.92-11.99-20.71
			c-0.94-2.82-1.85-5.62-2.74-8.38c-2.1-6.42-4.21-12.6-6.31-18.55c-2.1-5.95-4.3-11.29-6.6-16.02c-2.3-4.73-4.8-8.49-7.51-11.29
			c-2.71-2.79-5.7-4.19-8.96-4.19h-5.64l-0.08,20.92c0,7.36,0.26,13.27,0.79,17.72c0.53,4.46,1.3,7.83,2.32,10.13
			c1.02,2.3,2.25,3.82,3.69,4.57c1.44,0.75,3.1,1.12,4.98,1.12v0.66c-5.92,0-11.36-0.4-16.31-1.2c-4.95-0.8-9.23-2.38-12.82-4.73
			c-3.6-2.35-6.38-5.77-8.34-10.25c-1.96-4.48-2.95-10.38-2.95-17.68l0.08-53.37c0-7.36-0.26-13.27-0.79-17.72
			c-0.53-4.45-1.29-7.83-2.28-10.13c-1-2.3-2.23-3.82-3.69-4.57c-1.47-0.75-3.14-1.12-5.02-1.12v-0.66c5.26,0,10.11,0.29,14.57,0.87
			c4.45,0.58,8.41,1.73,11.87,3.44c3.46,1.72,6.32,4.21,8.59,7.47c3.32-4.54,7.48-7.72,12.49-9.55c5.01-1.83,9.92-2.81,14.73-2.95
			c4.81-0.14,8.58,0.04,11.29,0.54c7.03,1.22,12.95,4.26,17.76,9.13c4.59,4.87,7.48,10.51,8.67,16.93
			c1.19,6.42,0.54,12.73-1.95,18.93c-2.77,6.36-7.28,11.43-13.53,15.19c-6.2,3.71-14.55,5.78-25.07,6.23
			c5.64,0.44,11.22,1.7,16.73,3.78c5.51,2.08,10.46,5.44,14.86,10.08S537.19,602.97,539.51,611.16z M473.77,524.08
			c1.66,2.49,2.92,5.51,3.78,9.05c0.86,3.54,1.29,7.72,1.29,12.53v31.79h11.12c5.31,0,9.52-1.49,12.62-4.48
			c3.1-2.99,5.27-6.82,6.52-11.5c1.25-4.68,1.66-9.66,1.25-14.94c-0.42-5.28-1.52-10.29-3.32-15.02c-1.8-4.73-4.16-8.63-7.1-11.7
			c-2.93-3.07-6.31-4.75-10.13-5.02c-3.82-0.28-7.94,1.44-12.37,5.15C476.42,520.71,475.21,522.09,473.77,524.08z"/>
		<path d="M632.23,565.09c-5.81,12.23-11.37,25.29-16.68,39.18c-2.77,7.42-4.52,12.84-5.27,16.27c-0.75,3.43-0.65,6.25,0.29,8.47
			c0.5,1.44,1.3,2.44,2.41,2.99c1.44,0.39,2.88,0.58,4.32,0.58v0.66c-5.92,0-11.48-0.48-16.68-1.45c-5.2-0.97-9.95-2.7-14.24-5.19
			c-4.29-2.49-8.04-5.99-11.25-10.5c-3.21-4.51-5.84-10.28-7.89-17.31c-5.81-20.59-10.51-38.18-14.11-52.79
			c-0.94-3.87-1.77-7.33-2.49-10.38c-1.49-6.42-2.75-11.32-3.78-14.69c-1.02-3.38-2.12-5.64-3.28-6.81s-2.82-1.74-4.98-1.74v-0.66
			c5.92,0,11.18,0.44,15.77,1.33c4.59,0.89,8.62,2.55,12.08,4.98c3.46,2.44,6.45,5.88,8.96,10.33c2.52,4.46,4.66,10.22,6.43,17.31
			c1.88,7.47,4.12,16.34,6.72,26.6c2.6,10.27,4.95,19.49,7.06,27.68c2.1,8.13,4.16,14.47,6.18,19.01c2.02,4.54,4.03,7.8,6.02,9.79
			c-0.61-2.6-0.26-5.93,1.04-10c1.3-4.07,3.31-9.28,6.02-15.65c1.66-4.04,3.49-8.66,5.48-13.86c3.93-10.68,5.41-20.61,4.44-29.8
			c-0.97-9.19-3.4-17.28-7.3-24.28c-3.9-7-8.23-12.46-12.99-16.39c-4.76-3.93-8.96-5.92-12.62-5.98v-1.08
			c2.82,0,5.27-0.19,7.35-0.58c2.08-0.39,4-0.8,5.77-1.25c2.38-0.66,4.87-1.13,7.47-1.41c2.6-0.28,5.75-0.05,9.46,0.66
			c6.53,1.49,11.51,4.57,14.94,9.21c3.43,4.65,5.15,10.18,5.15,16.6c0,5.26-1.44,11.21-4.32,17.85
			C636.27,556.12,634.44,560.22,632.23,565.09z"/>
		<path d="M690.59,599.37c-1.88-7.53-4.12-16.42-6.72-26.69c-2.6-10.26-4.95-19.49-7.06-27.68c-2.1-8.13-4.16-14.47-6.18-19.01
			c-2.02-4.54-4.05-7.8-6.1-9.79c0.77,3.04,0.28,7.13-1.49,12.24c-1.77,5.12-4.51,11.91-8.22,20.38c-2.05,4.65-4.32,9.93-6.81,15.85
			c-3.32,8.58-3.89,16.24-1.7,22.99c2.19,6.75,5.74,12.3,10.67,16.64c4.92,4.34,9.89,7.24,14.9,8.67c5.01,1.44,8.67,1.19,11-0.75
			c1.05-1.22,0.48-3.18-1.7-5.89c-2.19-2.71-5.05-5.78-8.59-9.21c-3.93-3.82-7.44-7.61-10.54-11.37c-3.1-3.76-4.51-7.03-4.23-9.79
			c0.17-1.38,0.8-2.75,1.91-4.11c1.11-1.36,2.92-2.23,5.44-2.62c2.52-0.39,5.99,0.19,10.42,1.74v0.83c-4.21-2.05-6.24-1.51-6.1,1.62
			c0.14,3.13,1.38,7.37,3.74,12.74c2.35,5.37,4.72,10.43,7.1,15.19c2.27,4.43,3.62,7.36,4.07,8.8c0.77,3.49,0.71,6.39-0.21,8.72
			s-2.2,4.37-3.86,6.14c-5.04,5.48-12.48,8.22-22.33,8.22c-4.93,0-9.46-0.83-13.61-2.49c-4.65-1.94-8.16-4.7-10.54-8.3
			c-2.27-3.49-3.4-7.61-3.4-12.37c0-5.31,1.44-11.29,4.32-17.93c1.44-3.32,3.26-7.39,5.48-12.2c5.81-12.29,11.37-25.34,16.68-39.18
			c2.77-7.42,4.52-12.85,5.27-16.31c0.75-3.46,0.62-6.27-0.37-8.43c-0.5-1.49-1.33-2.52-2.49-3.07c-1.38-0.39-2.77-0.58-4.15-0.58
			v-0.66c5.92,0,11.48,0.49,16.68,1.45c5.2,0.97,9.93,2.7,14.19,5.19c4.26,2.49,8.01,5.99,11.25,10.5
			c3.24,4.51,5.88,10.28,7.93,17.31c5.81,20.59,10.49,38.18,14.03,52.79c0.94,3.87,1.8,7.33,2.57,10.38
			c1.49,6.42,2.75,11.32,3.78,14.69c1.02,3.38,2.12,5.64,3.28,6.81s2.82,1.74,4.98,1.74v0.66c-5.92,0-11.18-0.44-15.77-1.33
			c-4.59-0.88-8.63-2.53-12.12-4.94s-6.49-5.85-9.01-10.33C694.42,612.15,692.3,606.4,690.59,599.37z"/>
		<g>
			<path d="M791.51,561.68h-5.28l0.07,57.02c0,8.59,2.31,13.21,13.38,13.21v1.32h-44.59v-1.32c11.06,0,13.38-4.62,13.38-13.21
				v-92.08c0-8.59-2.48-13.05-13.54-13.05v-1.32h103.71v23.23h-1.49c-0.5-13.87-12.39-21.91-40.96-21.91H786.3l-0.07,46.78h5.61
				c24.77,0,36.66-10.4,36.66-30.06h1.49v63.09h-1.49C828.5,568.95,814.46,561.68,791.51,561.68z"/>
			<path d="M874.16,631.92c11.06,0,13.54-4.62,13.54-13.21V526.8c0-8.59-2.48-13.21-13.54-13.21v-1.32h44.92v1.32
				c-11.06,0-13.54,4.62-13.54,13.21v91.91c0,8.59,2.48,13.21,13.54,13.21v1.32h-44.92V631.92z"/>
			<path d="M936.91,512.26h108.5v23.23h-1.65c-0.5-13.87-9.25-21.91-37.82-21.91h-5.45v100.17c0,13.05,2.15,18.17,13.21,18.17v1.32
				h-44.59v-1.32c11.06,0,13.54-5.12,13.54-18.17c0-99.58,0.16-98.02,0-100.17h-6.28c-28.57,0-37.32,8.04-37.82,21.91h-1.65V512.26z
				"/>
		</g>
	</g>
</g>
</svg>
